<mxfile host="Electron" modified="2024-05-28T21:56:32.932Z" agent="Mozilla/5.0 (Windows NT 10.0; Win64; x64) AppleWebKit/537.36 (KHTML, like Gecko) draw.io/24.4.0 Chrome/120.0.6099.109 Electron/28.1.0 Safari/537.36" etag="gPb6fAew5GG-3T3mOiBb" version="24.4.0" type="device">
  <diagram id="ipHnm6p8lcO3ebUL6we_" name="Buzones de correos electronicos">
    <mxGraphModel dx="2074" dy="836" grid="1" gridSize="10" guides="1" tooltips="1" connect="1" arrows="1" fold="1" page="1" pageScale="1" pageWidth="1169" pageHeight="827" math="0" shadow="0">
      <root>
        <mxCell id="0" />
        <mxCell id="1" parent="0" />
        <mxCell id="NK-i6EUG844THKdRQ7ca-5" style="edgeStyle=orthogonalEdgeStyle;rounded=0;sketch=1;hachureGap=4;jiggle=2;curveFitting=1;orthogonalLoop=1;jettySize=auto;html=1;fontFamily=Architects Daughter;fontSource=https%3A%2F%2Ffonts.googleapis.com%2Fcss%3Ffamily%3DArchitects%2BDaughter;" parent="1" source="NK-i6EUG844THKdRQ7ca-4" target="NK-i6EUG844THKdRQ7ca-1" edge="1">
          <mxGeometry relative="1" as="geometry" />
        </mxCell>
        <mxCell id="NK-i6EUG844THKdRQ7ca-6" value="Los correos se reenvían a SAP" style="edgeLabel;html=1;align=center;verticalAlign=middle;resizable=0;points=[];sketch=1;hachureGap=4;jiggle=2;curveFitting=1;fontFamily=Architects Daughter;fontSource=https%3A%2F%2Ffonts.googleapis.com%2Fcss%3Ffamily%3DArchitects%2BDaughter;" parent="NK-i6EUG844THKdRQ7ca-5" connectable="0" vertex="1">
          <mxGeometry x="-0.5" y="3" relative="1" as="geometry">
            <mxPoint as="offset" />
          </mxGeometry>
        </mxCell>
        <mxCell id="NK-i6EUG844THKdRQ7ca-4" value="&lt;span style=&quot;background-color: rgb(255, 255, 153);&quot;&gt;Se configura en el servidor de etw1 de correos electronicos&lt;/span&gt;" style="rounded=0;whiteSpace=wrap;html=1;sketch=1;hachureGap=4;jiggle=2;curveFitting=1;fontFamily=Architects Daughter;fontSource=https%3A%2F%2Ffonts.googleapis.com%2Fcss%3Ffamily%3DArchitects%2BDaughter;labelPosition=center;verticalLabelPosition=middle;align=center;verticalAlign=bottom;" parent="1" vertex="1">
          <mxGeometry x="350" y="70" width="990" height="260" as="geometry" />
        </mxCell>
        <mxCell id="NK-i6EUG844THKdRQ7ca-1" value="SAP" style="rounded=0;whiteSpace=wrap;html=1;sketch=1;hachureGap=4;jiggle=2;curveFitting=1;fontFamily=Architects Daughter;fontSource=https%3A%2F%2Ffonts.googleapis.com%2Fcss%3Ffamily%3DArchitects%2BDaughter;labelPosition=center;verticalLabelPosition=middle;align=center;verticalAlign=middle;" parent="1" vertex="1">
          <mxGeometry x="785" y="450" width="120" height="60" as="geometry" />
        </mxCell>
        <UserObject label="operaciones@twglobalprotection.com Reembolsos  " link="operaciones@twgl&#xa;obalprotection.com" id="NK-i6EUG844THKdRQ7ca-2">
          <mxCell style="text;whiteSpace=wrap;fontFamily=Architects Daughter;fontSource=https%3A%2F%2Ffonts.googleapis.com%2Fcss%3Ffamily%3DArchitects%2BDaughter;fontSize=17;labelBackgroundColor=#9999FF;" parent="1" vertex="1">
            <mxGeometry x="400" y="160" width="340" height="50" as="geometry" />
          </mxCell>
        </UserObject>
        <mxCell id="NK-i6EUG844THKdRQ7ca-3" value="Buzón: Entrada y salida" style="rounded=0;whiteSpace=wrap;html=1;sketch=1;hachureGap=4;jiggle=2;curveFitting=1;fontFamily=Architects Daughter;fontSource=https%3A%2F%2Ffonts.googleapis.com%2Fcss%3Ffamily%3DArchitects%2BDaughter;" parent="1" vertex="1">
          <mxGeometry x="390" y="90" width="120" height="60" as="geometry" />
        </mxCell>
        <mxCell id="NK-i6EUG844THKdRQ7ca-7" value="&lt;span style=&quot;font-size: 17px; text-align: left; background-color: rgb(153, 153, 255);&quot;&gt;asistencias@twglobalprotection.com&lt;/span&gt;&lt;br style=&quot;padding: 0px; margin: 0px; font-size: 17px; text-align: left;&quot;&gt;&lt;span style=&quot;font-size: 17px; text-align: left; background-color: rgb(153, 153, 255);&quot;&gt;Claims / Bill Claims / Monitorización de la asistencia médica de lado de los proveedores. / Correos del customer trip.&lt;/span&gt;" style="text;html=1;align=center;verticalAlign=middle;whiteSpace=wrap;rounded=0;fontFamily=Architects Daughter;fontSource=https%3A%2F%2Ffonts.googleapis.com%2Fcss%3Ffamily%3DArchitects%2BDaughter;" parent="1" vertex="1">
          <mxGeometry x="800" y="200" width="200" height="30" as="geometry" />
        </mxCell>
        <mxCell id="NK-i6EUG844THKdRQ7ca-8" value="&lt;br style=&quot;padding: 0px; margin: 0px; font-size: 17px; text-align: left;&quot;&gt;&lt;span style=&quot;font-size: 17px; text-align: left; background-color: rgb(153, 153, 255);&quot;&gt;facturas@bigtreeservices.net&lt;/span&gt;&lt;br style=&quot;padding: 0px; margin: 0px; font-size: 17px; text-align: left;&quot;&gt;&lt;span style=&quot;font-size: 17px; text-align: left; background-color: rgb(153, 153, 255);&quot;&gt;Proveedores envias facturas&lt;/span&gt;" style="text;html=1;align=center;verticalAlign=middle;whiteSpace=wrap;rounded=0;fontFamily=Architects Daughter;fontSource=https%3A%2F%2Ffonts.googleapis.com%2Fcss%3Ffamily%3DArchitects%2BDaughter;" parent="1" vertex="1">
          <mxGeometry x="1170" y="180" width="60" height="30" as="geometry" />
        </mxCell>
      </root>
    </mxGraphModel>
  </diagram>
</mxfile>
